ffmpeg started on 2016-12-12 at 04:22:17
Report written to "Output/theora/results/ffmpeg/Tcrowd_run_2160p504000k.log"
Command line:
Tools/ffmpeg/ffmpeg -i Output/theora/encoded/crowd_run_2160p504000k.mkv -c:v rawvideo -pix_fmt yuv420p Output/theora/transcoded/crowd_run_2160p504000k.yuv
ffmpeg version N-82227-gdb23fde Copyright (c) 2000-2016 the FFmpeg developers
  built with gcc 5.4.0 (Ubuntu 5.4.0-6ubuntu1~16.04.2) 20160609
  configuration: --prefix=/home/jaroslav/ffmpeg_build --pkg-config-flags=--static --extra-cflags=-I/home/jaroslav/ffmpeg_build/include --extra-ldflags=-L/home/jaroslav/ffmpeg_build/lib --bindir=/home/jaroslav/bin --enable-gpl --enable-libass --enable-libfdk-aac --enable-libfreetype --enable-libmp3lame --enable-libopus --enable-libtheora --enable-libvorbis --enable-libvpx --enable-libx264 --enable-libx265 --enable-nvenc --enable-libmfx --enable-libxvid --enable-libgsm --enable-libopencore-amrnb --enable-version3 --enable-nonfree
  libavutil      55. 35.100 / 55. 35.100
  libavcodec     57. 66.101 / 57. 66.101
  libavformat    57. 57.100 / 57. 57.100
  libavdevice    57.  2.100 / 57.  2.100
  libavfilter     6. 66.100 /  6. 66.100
  libswscale      4.  3.100 /  4.  3.100
  libswresample   2.  4.100 /  2.  4.100
  libpostproc    54.  2.100 / 54.  2.100
Input #0, matroska,webm, from 'Output/theora/encoded/crowd_run_2160p504000k.mkv':
  Metadata:
    ENCODER         : Lavf57.57.100
  Duration: 00:00:10.00, start: 0.000000, bitrate: 4667 kb/s
    Stream #0:0: Video: theora, yuv420p(progressive), 3840x2160 [SAR 1:1 DAR 16:9], 50 fps, 50 tbr, 1k tbn, 50 tbc (default)
    Metadata:
      ENCODER         : Lavc57.66.101 libtheora
      DURATION        : 00:00:10.000000000
Output #0, rawvideo, to 'Output/theora/transcoded/crowd_run_2160p504000k.yuv':
  Metadata:
    encoder         : Lavf57.57.100
    Stream #0:0: Video: rawvideo (I420 / 0x30323449), yuv420p, 3840x2160 [SAR 1:1 DAR 16:9], q=2-31, 200 kb/s, 50 fps, 50 tbn, 50 tbc (default)
    Metadata:
      DURATION        : 00:00:10.000000000
      encoder         : Lavc57.66.101 rawvideo
Stream mapping:
  Stream #0:0 -> #0:0 (theora (native) -> rawvideo (native))
Press [q] to stop, [?] for help
frame=   25 fps=0.0 q=-0.0 size=  303750kB time=00:00:00.50 bitrate=4976640.0kbits/s dup=10 drop=0 speed=0.671x    frame=   61 fps= 41 q=-0.0 size=  741150kB time=00:00:01.22 bitrate=4976640.0kbits/s dup=43 drop=0 speed=0.823x    frame=   85 fps= 39 q=-0.0 size= 1032750kB time=00:00:01.70 bitrate=4976640.0kbits/s dup=65 drop=0 speed=0.776x    frame=  109 fps= 38 q=-0.0 size= 1324350kB time=00:00:02.18 bitrate=4976640.0kbits/s dup=87 drop=0 speed=0.752x    frame=  133 fps= 37 q=-0.0 size= 1615950kB time=00:00:02.66 bitrate=4976640.0kbits/s dup=109 drop=0 speed=0.738x    frame=  157 fps= 36 q=-0.0 size= 1907550kB time=00:00:03.14 bitrate=4976640.0kbits/s dup=131 drop=0 speed=0.727x    frame=  181 fps= 36 q=-0.0 size= 2199150kB time=00:00:03.62 bitrate=4976640.0kbits/s dup=153 drop=0 speed=0.719x    frame=  205 fps= 36 q=-0.0 size= 2490750kB time=00:00:04.10 bitrate=4976640.0kbits/s dup=175 drop=0 speed=0.713x    frame=  229 fps= 35 q=-0.0 size= 2782350kB time=00:00:04.58 bitrate=4976640.0kbits/s dup=197 drop=0 speed=0.708x    frame=  253 fps= 35 q=-0.0 size= 3073950kB time=00:00:05.06 bitrate=4976640.0kbits/s dup=219 drop=0 speed=0.705x    frame=  277 fps= 35 q=-0.0 size= 3365550kB time=00:00:05.54 bitrate=4976640.0kbits/s dup=241 drop=0 speed=0.693x    frame=  301 fps= 34 q=-0.0 size= 3657150kB time=00:00:06.02 bitrate=4976640.0kbits/s dup=263 drop=0 speed=0.677x    frame=  313 fps= 33 q=-0.0 size= 3802950kB time=00:00:06.26 bitrate=4976640.0kbits/s dup=274 drop=0 speed=0.654x    frame=  337 fps= 32 q=-0.0 size= 4094550kB time=00:00:06.74 bitrate=4976640.0kbits/s dup=296 drop=0 speed=0.644x    frame=  361 fps= 32 q=-0.0 size= 4386150kB time=00:00:07.22 bitrate=4976640.0kbits/s dup=318 drop=0 speed=0.638x    frame=  385 fps= 32 q=-0.0 size= 4677750kB time=00:00:07.70 bitrate=4976640.0kbits/s dup=340 drop=0 speed=0.636x    frame=  409 fps= 32 q=-0.0 size= 4969350kB time=00:00:08.18 bitrate=4976640.0kbits/s dup=362 drop=0 speed=0.639x    frame=  433 fps= 32 q=-0.0 size= 5260950kB time=00:00:08.66 bitrate=4976640.0kbits/s dup=384 drop=0 speed=0.637x    frame=  457 fps= 31 q=-0.0 size= 5552550kB time=00:00:09.14 bitrate=4976640.0kbits/s dup=406 drop=0 speed=0.627x    frame=  481 fps= 31 q=-0.0 size= 5844150kB time=00:00:09.62 bitrate=4976640.0kbits/s dup=428 drop=0 speed=0.627x    frame=  493 fps= 30 q=-0.0 size= 5989950kB time=00:00:09.86 bitrate=4976640.0kbits/s dup=439 drop=0 speed=0.608x    frame=  503 fps= 30 q=-0.0 Lsize= 6111450kB time=00:00:10.06 bitrate=4976640.0kbits/s dup=449 drop=0 speed=0.605x    
video:6111450kB audio:0kB subtitle:0kB other streams:0kB global headers:0kB muxing overhead: 0.000000%
